<svg width="14" height="14" viewBox="0 0 14 14" fill="none" xmlns="http://www.w3.org/2000/svg">
<path d="M8.74992 0H5.24992C4.47665 0.00092625 3.73533 0.308514 3.18855 0.855295C2.64177 1.40208 2.33418 2.1434 2.33325 2.91667V11.0833C2.33418 11.8566 2.64177 12.5979 3.18855 13.1447C3.73533 13.6915 4.47665 13.9991 5.24992 14H8.74992C9.52318 13.9991 10.2645 13.6915 10.8113 13.1447C11.3581 12.5979 11.6657 11.8566 11.6666 11.0833V2.91667C11.6657 2.1434 11.3581 1.40208 10.8113 0.855295C10.2645 0.308514 9.52318 0.00092625 8.74992 0V0ZM5.24992 1.16667H8.74992C9.21405 1.16667 9.65917 1.35104 9.98735 1.67923C10.3155 2.00742 10.4999 2.45254 10.4999 2.91667V9.33333H3.49992V2.91667C3.49992 2.45254 3.68429 2.00742 4.01248 1.67923C4.34067 1.35104 4.78579 1.16667 5.24992 1.16667ZM8.74992 12.8333H5.24992C4.78579 12.8333 4.34067 12.649 4.01248 12.3208C3.68429 11.9926 3.49992 11.5475 3.49992 11.0833V10.5H10.4999V11.0833C10.4999 11.5475 10.3155 11.9926 9.98735 12.3208C9.65917 12.649 9.21405 12.8333 8.74992 12.8333Z" fill="white"/>
<path d="M7.00008 12.25C7.32225 12.25 7.58341 11.9889 7.58341 11.6667C7.58341 11.3445 7.32225 11.0834 7.00008 11.0834C6.67792 11.0834 6.41675 11.3445 6.41675 11.6667C6.41675 11.9889 6.67792 12.25 7.00008 12.25Z" fill="white"/>
</svg>
