<svg width="14" height="14" viewBox="0 0 14 14" fill="none" xmlns="http://www.w3.org/2000/svg">
<path d="M11.0833 0.583374H2.91667C2.1434 0.5843 1.40208 0.891888 0.855295 1.43867C0.308514 1.98545 0.00092625 2.72678 0 3.50004L0 10.5C0.00092625 11.2733 0.308514 12.0146 0.855295 12.5614C1.40208 13.1082 2.1434 13.4158 2.91667 13.4167H11.0833C11.8566 13.4158 12.5979 13.1082 13.1447 12.5614C13.6915 12.0146 13.9991 11.2733 14 10.5V3.50004C13.9991 2.72678 13.6915 1.98545 13.1447 1.43867C12.5979 0.891888 11.8566 0.5843 11.0833 0.583374ZM2.91667 1.75004H11.0833C11.4326 1.75073 11.7737 1.85592 12.0627 2.05209C12.3517 2.24826 12.5754 2.52643 12.705 2.85079L8.23783 7.31854C7.90908 7.64597 7.46399 7.82981 7 7.82981C6.53601 7.82981 6.09092 7.64597 5.76217 7.31854L1.295 2.85079C1.42459 2.52643 1.64827 2.24826 1.93728 2.05209C2.22628 1.85592 2.56738 1.75073 2.91667 1.75004ZM11.0833 12.25H2.91667C2.45254 12.25 2.00742 12.0657 1.67923 11.7375C1.35104 11.4093 1.16667 10.9642 1.16667 10.5V4.37504L4.93733 8.14337C5.48487 8.68952 6.22665 8.99623 7 8.99623C7.77335 8.99623 8.51513 8.68952 9.06267 8.14337L12.8333 4.37504V10.5C12.8333 10.9642 12.649 11.4093 12.3208 11.7375C11.9926 12.0657 11.5475 12.25 11.0833 12.25Z" fill="white"/>
</svg>
